<svg width="151" height="117" viewBox="0 0 151 117" fill="none" xmlns="http://www.w3.org/2000/svg">
<path d="M14.9486 82.1624C14.7115 79.7912 13.5539 78.1151 11.3225 77.2627C10.1888 76.8387 8.9923 76.6181 7.78556 76.6106C5.30025 76.5705 2.81215 76.5877 0.326834 76.5791C0.266964 76.5834 0.207368 76.591 0.148315 76.602V78.8902H2.96835C4.2124 78.8902 5.4174 78.853 6.61961 78.8902C7.52005 78.9131 8.41689 79.0155 9.30018 79.1963C11.2109 79.6282 12.123 80.7923 12.1955 82.8002C12.218 83.4163 12.1674 84.0329 12.0449 84.6365C11.6962 86.3069 10.561 87.1879 9.01009 87.5369C8.28007 87.6928 7.53796 87.7818 6.79255 87.8029C5.64613 87.8458 4.49691 87.8029 3.3477 87.8029H2.96835V87.8029H0.159473V99.0667H2.94882V90.1826H7.19143C8.21844 90.1873 9.241 90.0439 10.229 89.7564C12.1816 89.1844 13.7269 88.0746 14.5302 86.0724C14.9862 84.8254 15.1301 83.4811 14.9486 82.1624V82.1624Z" fill="#F26236"/>
<path d="M90.4577 91.2101C90.9228 90.6271 91.3935 90.045 91.8698 89.4638C93.6811 87.2039 95.4896 84.9439 97.2952 82.6839C97.4061 82.5267 97.5903 82.4393 97.781 82.4531C98.6904 82.4531 99.5998 82.4531 100.591 82.4531L99.645 83.5926C98.1821 85.3588 96.7181 87.1231 95.2533 88.8855C95.1826 88.9456 95.1393 89.0322 95.1334 89.1253C95.1276 89.2183 95.1597 89.3098 95.2222 89.3784C97.186 92.4778 99.1423 95.5801 101.091 98.6852L101.309 99.0356C101.196 99.0356 101.116 99.0641 101.026 99.0641C100.213 99.0641 99.3993 99.0641 98.5859 99.0641C98.3618 99.087 98.1485 98.9616 98.0578 98.7535C96.6136 96.3378 95.1639 93.924 93.7084 91.5121C93.6293 91.3782 93.5446 91.2471 93.4429 91.0848L91.3473 93.5432C91.3085 93.599 91.264 93.6506 91.2146 93.6971C90.4746 94.3152 90.2769 95.1043 90.3504 96.0558C90.4238 97.0073 90.3673 98.03 90.3673 99.0384H87.6221V74.7559H90.3617V91.1731L90.4577 91.2101Z" fill="white"/>
<path fill-rule="evenodd" clip-rule="evenodd" d="M121.936 85.8521C122.431 86.6775 122.531 87.5977 122.531 88.5295C122.141 88.596 121.756 88.6585 121.374 88.7204C120.55 88.8539 119.743 88.9847 118.944 89.1478C117.417 89.4555 115.927 89.8897 114.589 90.7295C113.147 91.562 112.266 93.1129 112.284 94.7843C112.241 96.9987 113.307 98.6494 115.261 99.331C116.274 99.6745 117.36 99.7409 118.407 99.5237C119.957 99.2303 121.229 98.3791 122.459 97.4473L122.782 97.2058C122.868 97.896 122.948 98.5401 123.028 99.1987H125.374V98.8479V88.6043C125.377 87.628 125.226 86.6574 124.927 85.7284C124.232 83.6061 122.851 82.3206 120.586 82.0848C118.721 81.8746 116.835 82.207 115.152 83.0424C114.665 83.2813 114.185 83.5331 113.699 83.7882C113.459 83.914 113.217 84.0406 112.973 84.1669L114.14 86.1799C114.185 86.1497 114.226 86.122 114.264 86.0964C114.338 86.0465 114.401 86.0041 114.466 85.9643C115.727 85.1763 117.054 84.5034 118.587 84.3941C119.957 84.2992 121.167 84.5724 121.936 85.8521ZM121.415 90.6132C121.783 90.5389 122.155 90.4638 122.531 90.3844L122.534 91.3478V94.7987C122.551 94.9921 122.47 95.1814 122.319 95.302C121.315 96.1475 120.294 96.9469 118.97 97.2345C118.322 97.3808 117.649 97.3759 117.002 97.2202C115.664 96.8664 115 95.9462 115.075 94.5658C115.08 93.5758 115.611 92.6643 116.468 92.176C117.133 91.7771 117.846 91.465 118.59 91.2471C119.511 90.9973 120.45 90.8078 121.415 90.6132Z" fill="white"/>
<path d="M139.894 99.6742H137.012V82.4952H139.4L139.662 84.9847C140.132 84.5777 140.543 84.2031 140.96 83.8579C141.927 83.0763 142.946 82.3831 144.192 82.1678C145.153 81.9905 146.141 82.0116 147.094 82.2297C148.765 82.6309 149.738 83.7547 150.246 85.3446C150.554 86.3364 150.707 87.3704 150.698 88.4093C150.698 92.0434 150.698 95.6774 150.698 99.3085V99.6713H147.784V99.2377C147.784 95.7954 147.784 92.3501 147.784 88.9137C147.78 88.2549 147.706 87.5983 147.564 86.9551C147.197 85.3121 146.189 84.5747 144.503 84.5954C143.555 84.5888 142.632 84.9072 141.888 85.498C141.257 86.0024 140.652 86.5451 140.055 87.0938C139.945 87.222 139.886 87.3873 139.891 87.5569C139.891 91.4505 139.891 95.3431 139.891 99.2347L139.894 99.6742Z" fill="white"/>
<path d="M41.8025 74.7559H44.3738V95.6482C44.3738 95.8317 44.3738 96.0151 44.392 96.1957C44.4542 97.1674 44.7445 97.4167 45.6569 97.2562C45.7632 97.9241 45.8746 98.5948 45.9679 99.2626C45.9679 99.3199 45.8772 99.4403 45.8098 99.4604C44.8767 99.747 43.9436 99.7957 43.0571 99.2941C42.3132 98.8728 42.0565 98.0731 41.9243 97.2304C41.8454 96.722 41.8064 96.207 41.8077 95.6912C41.8077 88.837 41.8077 81.9837 41.8077 75.1313L41.8025 74.7559Z" fill="white"/>
<path d="M57.8691 74.7559H60.4333V95.7713C60.4284 95.9885 60.438 96.2057 60.4618 96.4213C60.5501 97.0998 60.8537 97.3518 61.4714 97.2802L61.7127 97.2315C61.8243 97.9015 61.9359 98.56 62.0346 99.2357C62.0222 99.3266 61.971 99.4054 61.897 99.4476C60.89 99.7511 59.8805 99.8284 58.9566 99.1813C58.2636 98.6917 58.056 97.8672 57.947 97.0254C57.8934 96.5832 57.8682 96.1373 57.8717 95.6912C57.8717 88.8559 57.8717 82.0206 57.8717 75.1853L57.8691 74.7559Z" fill="white"/>
<path d="M28.7112 99.0664H25.7359V82.0488H28.7112V99.0664Z" fill="white"/>
<path d="M75.7209 99.0664H72.7456V82.0488H75.7209V99.0664Z" fill="white"/>
<path d="M74.5276 75.3633C75.7225 75.3633 76.5243 76.392 76.2683 77.5917C76.0588 78.5577 75.1845 79.1475 74.1991 78.9823C73.3013 78.869 72.6559 77.977 72.7558 76.9875C72.8231 76.0386 73.5576 75.3633 74.5276 75.3633Z" fill="white"/>
<path d="M27.5365 75.3665C28.7698 75.3665 29.5584 76.4658 29.2326 77.7164C29.0189 78.4282 28.443 78.9319 27.7666 78.9984C26.9341 79.0812 26.2386 78.7129 25.9103 77.9991C25.6153 77.345 25.6996 76.5601 26.1249 76.0004C26.4853 75.5656 27.0036 75.3328 27.5365 75.3665Z" fill="white"/>
<path d="M14.9531 112.265C14.9531 110.863 15.5537 110.077 16.623 110.077C17.5215 110.077 18.1221 110.673 18.1416 111.527H19.123V111.479C19.123 110.146 18.0684 109.198 16.6182 109.198C14.9287 109.198 13.9424 110.351 13.9424 112.265V113.104C13.9424 114.999 14.9287 116.137 16.6182 116.137C18.0635 116.137 19.123 115.224 19.123 113.959V113.905H18.1416C18.1221 114.706 17.5215 115.258 16.623 115.258C15.5537 115.258 14.9531 114.486 14.9531 113.104V112.265Z" fill="white"/>
<path d="M35.1006 112.221C35.1006 110.8 35.8428 110.072 36.8193 110.072C37.8008 110.072 38.5381 110.8 38.5381 112.221V113.168C38.5381 114.594 37.8008 115.263 36.8193 115.263C35.8428 115.263 35.1006 114.594 35.1006 113.168V112.221ZM34.085 113.168C34.085 115.053 35.1396 116.137 36.8096 116.137C38.4844 116.137 39.5537 115.053 39.5537 113.168V112.23C39.5537 110.336 38.499 109.198 36.8291 109.198C35.1592 109.198 34.085 110.336 34.085 112.23V113.168Z" fill="white"/>
<path d="M55.7461 109.335H54.75V113.773C54.75 115.16 55.7168 116.137 57.3281 116.137C58.9443 116.137 59.9111 115.16 59.9111 113.773V109.335H58.915V113.637C58.915 114.633 58.2852 115.253 57.3281 115.253C56.3711 115.253 55.7461 114.638 55.7461 113.637V109.335Z" fill="white"/>
<path d="M77.8711 109.335H75.3809V116H76.377V113.402H77.8516L79.0625 116H80.2002L78.8477 113.222C79.4043 113.017 80.0781 112.455 80.0781 111.361C80.0781 110.272 79.3848 109.335 77.8711 109.335ZM76.377 112.577V110.18H77.7344C78.5156 110.18 79.0381 110.595 79.0381 111.405C79.0381 112.157 78.5742 112.577 77.7051 112.577H76.377Z" fill="white"/>
<path d="M96.3828 116V109.335H95.377V116H96.3828Z" fill="white"/>
<path d="M116.018 115.136H112.927V113.021H115.842V112.191H112.927V110.199H116.018V109.335H111.926V116H116.018V115.136Z" fill="white"/>
<path d="M133.826 109.335H131.336V116H132.332V113.402H133.807L135.018 116H136.155L134.803 113.222C135.359 113.017 136.033 112.455 136.033 111.361C136.033 110.272 135.34 109.335 133.826 109.335ZM132.332 112.577V110.18H133.689C134.471 110.18 134.993 110.595 134.993 111.405C134.993 112.157 134.529 112.577 133.66 112.577H132.332Z" fill="white"/>
<path fill-rule="evenodd" clip-rule="evenodd" d="M57.2536 0.00561609C57.2536 0.00561609 57.4711 4.16482 59.0716 6.48297C60.6721 8.80111 61.7585 9.67652 63.7174 10.0544C65.6763 10.4322 75.7061 9.89357 77.9279 10.3443C80.1496 10.7951 82.6267 13.0123 83.1894 15.9895C83.3919 14.6351 82.1588 10.3891 78.5781 5.99448C74.9974 1.59984 69.5974 0.0580344 67.5816 0.0232979C65.5657 -0.0114387 57.2536 0.00561609 57.2536 0.00561609Z" fill="white"/>
<path fill-rule="evenodd" clip-rule="evenodd" d="M57.2536 0.00561609C57.2536 0.00561609 57.4711 4.16482 59.0716 6.48297C60.6721 8.80111 61.7585 9.67652 63.7174 10.0544C65.6763 10.4322 75.7061 9.89357 77.9279 10.3443C80.1496 10.7951 82.6267 13.0123 83.1894 15.9895C83.3919 14.6351 82.1588 10.3891 78.5781 5.99448C74.9974 1.59984 69.5974 0.0580344 67.5816 0.0232979C65.5657 -0.0114387 57.2536 0.00561609 57.2536 0.00561609Z" fill="url(#paint0_linear_45:1024)"/>
<path fill-rule="evenodd" clip-rule="evenodd" d="M64.7294 0.000283728C64.7294 0.000283728 72.5548 0.0216821 75.331 0.0752918C79.0848 0.14778 81.4465 0.293384 82.4507 0.404634C85.0709 0.694923 94.5639 4.56596 94.4225 18.0252C94.2812 31.4845 81.4539 34.8951 80.4325 35.166C79.4111 35.4369 69.5654 35.166 69.5654 35.166C69.5654 35.166 68.9054 32.873 70.9928 29.818C73.0801 26.7629 76.4692 25.0615 76.4692 25.0615C76.4692 25.0615 78.6884 25.0383 81.2108 22.5738C83.7332 20.1094 83.092 15.3356 83.092 15.3356C83.092 15.3356 82.1723 10.6536 78.1104 5.96767C74.0485 1.28171 64.7294 0.000283728 64.7294 0.000283728Z" fill="#EFEFEF"/>
<path fill-rule="evenodd" clip-rule="evenodd" d="M64.7294 0.000283728C64.7294 0.000283728 72.5548 0.0216821 75.331 0.0752918C79.0848 0.14778 81.4465 0.293384 82.4507 0.404634C85.0709 0.694923 94.5639 4.56596 94.4225 18.0252C94.2812 31.4845 81.4539 34.8951 80.4325 35.166C79.4111 35.4369 69.5654 35.166 69.5654 35.166C69.5654 35.166 68.9054 32.873 70.9928 29.818C73.0801 26.7629 76.4692 25.0615 76.4692 25.0615C76.4692 25.0615 78.6884 25.0383 81.2108 22.5738C83.7332 20.1094 83.092 15.3356 83.092 15.3356C83.092 15.3356 82.1723 10.6536 78.1104 5.96767C74.0485 1.28171 64.7294 0.000283728 64.7294 0.000283728Z" fill="url(#paint1_linear_45:1024)"/>
<path fill-rule="evenodd" clip-rule="evenodd" d="M76.3579 25.1529C76.3579 25.1529 66.1821 25.0991 65.356 25.1529C64.53 25.2067 62.5485 26.694 60.8257 29.5759C59.103 32.4577 58.9318 34.4857 58.9205 35.9183C58.9092 37.3509 58.9205 53.9857 58.9205 53.9857C58.9205 53.9857 63.9247 54.1113 66.5849 50.6704C69.245 47.2295 69.4331 45.3285 69.4309 44.2019C69.4286 43.0753 69.4416 37.9313 69.4416 37.9313C69.4416 37.9313 69.2286 34.3305 70.8861 31.2681C72.5436 28.2057 76.3579 25.1529 76.3579 25.1529Z" fill="#EEEEEE"/>
<path fill-rule="evenodd" clip-rule="evenodd" d="M76.3579 25.1529C76.3579 25.1529 66.1821 25.0991 65.356 25.1529C64.53 25.2067 62.5485 26.694 60.8257 29.5759C59.103 32.4577 58.9318 34.4857 58.9205 35.9183C58.9092 37.3509 58.9205 53.9857 58.9205 53.9857C58.9205 53.9857 63.9247 54.1113 66.5849 50.6704C69.245 47.2295 69.4331 45.3285 69.4309 44.2019C69.4286 43.0753 69.4416 37.9313 69.4416 37.9313C69.4416 37.9313 69.2286 34.3305 70.8861 31.2681C72.5436 28.2057 76.3579 25.1529 76.3579 25.1529Z" fill="url(#paint2_linear_45:1024)"/>
<defs>
<linearGradient id="paint0_linear_45:1024" x1="70.232" y1="23.9842" x2="84.5123" y2="0.801922" gradientUnits="userSpaceOnUse">
<stop stop-color="#EC9B04"/>
<stop offset="1" stop-color="#FF4E00"/>
</linearGradient>
<linearGradient id="paint1_linear_45:1024" x1="51.0798" y1="-0.711989" x2="49.3881" y2="34.5658" gradientUnits="userSpaceOnUse">
<stop stop-color="#EC9B04"/>
<stop offset="1" stop-color="#FF4E00"/>
</linearGradient>
<linearGradient id="paint2_linear_45:1024" x1="67.6364" y1="10.6939" x2="42.0825" y2="26.1366" gradientUnits="userSpaceOnUse">
<stop stop-color="#EC9B04"/>
<stop offset="1" stop-color="#FF4E00"/>
</linearGradient>
</defs>
</svg>
